<svg xmlns="http://www.w3.org/2000/svg" version="1.1" xmlns:xlink="http://www.w3.org/1999/xlink" xmlns:svgjs="http://svgjs.com/svgjs" width="1440" height="560" preserveAspectRatio="none" viewBox="0 0 1440 560"><g mask="url(&quot;#SvgjsMask1092&quot;)" fill="none"><rect width="1440" height="560" x="0" y="0" fill="#1e3266"></rect><path d="M1488 560L0 560 L0 345.28Q49.58 322.86, 72 372.44Q94.78 275.22, 192 298Q270.64 256.64, 312 335.29Q343.7 246.99, 432 278.69Q483.43 258.12, 504 309.55Q590.7 276.25, 624 362.95Q674.24 293.19, 744 343.42Q769.61 297.03, 816 322.64Q868.28 302.92, 888 355.2Q902.18 297.38, 960 311.56Q1029.61 261.17, 1080 330.78Q1118.11 248.89, 1200 287Q1229.81 244.81, 1272 274.62Q1334.22 264.85, 1344 327.07Q1387.37 298.44, 1416 341.81Q1437.76 291.56, 1488 313.32z" fill="#182f5d"></path><path d="M1464 560L0 560 L0 365.45Q40.31 333.76, 72 374.08Q135.59 365.67, 144 429.26Q166.63 331.89, 264 354.52Q330 300.52, 384 366.52Q480.34 342.86, 504 439.19Q525.46 388.65, 576 410.12Q617.38 331.5, 696 372.87Q788.47 345.34, 816 437.8Q829.3 379.1, 888 392.4Q912.26 344.66, 960 368.93Q1050.95 339.88, 1080 430.83Q1103.93 382.76, 1152 406.69Q1196.02 330.71, 1272 374.73Q1295.25 325.98, 1344 349.23Q1410.22 295.46, 1464 361.68z" fill="#25467d"></path><path d="M1488 560L0 560 L0 427.98Q81.29 389.27, 120 470.56Q186.04 416.6, 240 482.63Q288.85 411.48, 360 460.32Q386.44 414.76, 432 441.2Q524.41 413.62, 552 506.03Q591.6 425.63, 672 465.22Q714.28 435.5, 744 477.79Q791.17 404.96, 864 452.13Q883.86 399.99, 936 419.84Q1002.79 366.63, 1056 433.42Q1146.12 403.53, 1176 493.65Q1213.18 410.83, 1296 448.01Q1361.08 393.09, 1416 458.16Q1476.64 446.8, 1488 507.44z" fill="#356cb1"></path><path d="M1464 560L0 560 L0 506.66Q43.94 478.6, 72 522.54Q162.71 493.25, 192 583.96Q233.4 505.37, 312 546.77Q354.91 469.68, 432 512.59Q492.05 500.64, 504 560.7Q547.02 483.73, 624 526.75Q682.83 513.58, 696 572.4Q720.73 525.13, 768 549.86Q800.44 462.3, 888 494.74Q957.26 444, 1008 513.27Q1076.22 461.49, 1128 529.71Q1150.15 479.86, 1200 502.01Q1284.07 466.08, 1320 550.15Q1342.85 501, 1392 523.84Q1446.64 506.49, 1464 561.13z" fill="white"></path></g><defs><mask id="SvgjsMask1092"><rect width="1440" height="560" fill="#ffffff"></rect></mask></defs></svg>